<mxfile host="app.diagrams.net" modified="2024-03-10T05:54:31.302Z" agent="Mozilla/5.0 (Windows NT 10.0; Win64; x64) AppleWebKit/537.36 (KHTML, like Gecko) Chrome/122.0.0.0 Safari/537.36" etag="NeAwTg-3B_Dy2A_BYaqu" version="24.0.4" type="device">
  <diagram name="Page-1" id="m7brfQ0IE0uVkcnXHWWI">
    <mxGraphModel dx="722" dy="375" grid="1" gridSize="10" guides="1" tooltips="1" connect="1" arrows="1" fold="1" page="1" pageScale="1" pageWidth="827" pageHeight="1169" math="0" shadow="0">
      <root>
        <mxCell id="0" />
        <mxCell id="1" parent="0" />
        <mxCell id="bZIRyT0qTB4COSatI6py-3" value="" style="endArrow=none;html=1;rounded=0;" edge="1" parent="1">
          <mxGeometry width="50" height="50" relative="1" as="geometry">
            <mxPoint x="640" y="214" as="sourcePoint" />
            <mxPoint x="440" y="214" as="targetPoint" />
          </mxGeometry>
        </mxCell>
        <mxCell id="bZIRyT0qTB4COSatI6py-4" value="&lt;span style=&quot;font-family: Calibri, sans-serif;&quot;&gt;&lt;font style=&quot;font-size: 15px;&quot;&gt;1&amp;nbsp; 0&amp;nbsp; 0&amp;nbsp; 0&amp;nbsp; 1&amp;nbsp; 0&amp;nbsp; 0&amp;nbsp; 1&amp;nbsp; 1&amp;nbsp; 1&amp;nbsp; 1&lt;/font&gt;&lt;/span&gt;" style="text;html=1;align=left;verticalAlign=middle;resizable=0;points=[];autosize=1;strokeColor=none;fillColor=none;" vertex="1" parent="1">
          <mxGeometry x="455" y="210" width="170" height="30" as="geometry" />
        </mxCell>
        <mxCell id="bZIRyT0qTB4COSatI6py-5" value="" style="endArrow=none;html=1;rounded=0;" edge="1" parent="1">
          <mxGeometry width="50" height="50" relative="1" as="geometry">
            <mxPoint x="440" y="240" as="sourcePoint" />
            <mxPoint x="440" y="214" as="targetPoint" />
          </mxGeometry>
        </mxCell>
        <mxCell id="bZIRyT0qTB4COSatI6py-8" value="&lt;span style=&quot;font-family: Calibri, sans-serif;&quot;&gt;&lt;font style=&quot;font-size: 15px;&quot;&gt;1&amp;nbsp; 0&amp;nbsp; 1&amp;nbsp; 1&lt;/font&gt;&lt;/span&gt;" style="text;html=1;align=right;verticalAlign=middle;resizable=0;points=[];autosize=1;strokeColor=none;fillColor=none;" vertex="1" parent="1">
          <mxGeometry x="365" y="211" width="70" height="30" as="geometry" />
        </mxCell>
        <mxCell id="bZIRyT0qTB4COSatI6py-9" value="&lt;span style=&quot;font-family: Calibri, sans-serif;&quot;&gt;&lt;font style=&quot;font-size: 15px;&quot;&gt;1&amp;nbsp; 0&amp;nbsp; 1&amp;nbsp; 1&amp;nbsp; 0&amp;nbsp; 0&amp;nbsp; 1&amp;nbsp; 1&lt;/font&gt;&lt;/span&gt;" style="text;html=1;align=left;verticalAlign=middle;resizable=0;points=[];autosize=1;strokeColor=none;fillColor=none;" vertex="1" parent="1">
          <mxGeometry x="455" y="188" width="130" height="30" as="geometry" />
        </mxCell>
        <mxCell id="bZIRyT0qTB4COSatI6py-10" value="&lt;span style=&quot;font-family: Calibri, sans-serif;&quot;&gt;&lt;font style=&quot;font-size: 15px;&quot;&gt;1&amp;nbsp; 0&amp;nbsp; 1&amp;nbsp; 1&lt;/font&gt;&lt;/span&gt;" style="text;html=1;align=left;verticalAlign=middle;resizable=0;points=[];autosize=1;strokeColor=none;fillColor=none;" vertex="1" parent="1">
          <mxGeometry x="455" y="224" width="70" height="30" as="geometry" />
        </mxCell>
        <mxCell id="bZIRyT0qTB4COSatI6py-13" value="&lt;span style=&quot;font-family: Calibri, sans-serif;&quot;&gt;&lt;font style=&quot;font-size: 15px;&quot;&gt;0&amp;nbsp; 1&amp;nbsp; 1&amp;nbsp; 1&lt;/font&gt;&lt;/span&gt;" style="text;html=1;align=left;verticalAlign=middle;resizable=0;points=[];autosize=1;strokeColor=none;fillColor=none;" vertex="1" parent="1">
          <mxGeometry x="470" y="244" width="70" height="30" as="geometry" />
        </mxCell>
        <mxCell id="bZIRyT0qTB4COSatI6py-15" value="&lt;span style=&quot;font-family: Calibri, sans-serif;&quot;&gt;&lt;font style=&quot;font-size: 15px;&quot;&gt;0&amp;nbsp; 0&amp;nbsp; 0&amp;nbsp; 0&lt;/font&gt;&lt;/span&gt;" style="text;html=1;align=left;verticalAlign=middle;resizable=0;points=[];autosize=1;strokeColor=none;fillColor=none;" vertex="1" parent="1">
          <mxGeometry x="470" y="258" width="70" height="30" as="geometry" />
        </mxCell>
        <mxCell id="bZIRyT0qTB4COSatI6py-17" value="&lt;span style=&quot;font-family: Calibri, sans-serif;&quot;&gt;&lt;font style=&quot;font-size: 15px;&quot;&gt;1&amp;nbsp; 1&amp;nbsp; 1&amp;nbsp; 0&lt;/font&gt;&lt;/span&gt;" style="text;html=1;align=left;verticalAlign=middle;resizable=0;points=[];autosize=1;strokeColor=none;fillColor=none;strokeWidth=1;" vertex="1" parent="1">
          <mxGeometry x="485" y="279" width="70" height="30" as="geometry" />
        </mxCell>
        <mxCell id="bZIRyT0qTB4COSatI6py-19" value="&lt;span style=&quot;font-family: Calibri, sans-serif;&quot;&gt;&lt;font style=&quot;font-size: 15px;&quot;&gt;1&amp;nbsp; 0&amp;nbsp; 1&amp;nbsp; 1&lt;/font&gt;&lt;/span&gt;" style="text;html=1;align=left;verticalAlign=middle;resizable=0;points=[];autosize=1;strokeColor=none;fillColor=none;" vertex="1" parent="1">
          <mxGeometry x="485" y="292" width="70" height="30" as="geometry" />
        </mxCell>
        <mxCell id="bZIRyT0qTB4COSatI6py-21" value="&lt;span style=&quot;font-family: Calibri, sans-serif;&quot;&gt;&lt;font style=&quot;font-size: 15px;&quot;&gt;1&amp;nbsp; 0&amp;nbsp; 1&amp;nbsp; 0&lt;/font&gt;&lt;/span&gt;" style="text;html=1;align=left;verticalAlign=middle;resizable=0;points=[];autosize=1;strokeColor=none;fillColor=none;" vertex="1" parent="1">
          <mxGeometry x="499" y="311" width="70" height="30" as="geometry" />
        </mxCell>
        <mxCell id="bZIRyT0qTB4COSatI6py-22" value="&lt;span style=&quot;font-family: Calibri, sans-serif;&quot;&gt;&lt;font style=&quot;font-size: 15px;&quot;&gt;1&amp;nbsp; 0&amp;nbsp; 1&amp;nbsp; 1&lt;/font&gt;&lt;/span&gt;" style="text;html=1;align=left;verticalAlign=middle;resizable=0;points=[];autosize=1;strokeColor=none;fillColor=none;" vertex="1" parent="1">
          <mxGeometry x="499" y="325" width="70" height="30" as="geometry" />
        </mxCell>
        <mxCell id="bZIRyT0qTB4COSatI6py-27" value="" style="endArrow=none;html=1;rounded=0;" edge="1" parent="1">
          <mxGeometry width="50" height="50" relative="1" as="geometry">
            <mxPoint x="455" y="249" as="sourcePoint" />
            <mxPoint x="510" y="249" as="targetPoint" />
          </mxGeometry>
        </mxCell>
        <mxCell id="bZIRyT0qTB4COSatI6py-28" value="" style="endArrow=none;html=1;rounded=0;" edge="1" parent="1">
          <mxGeometry width="50" height="50" relative="1" as="geometry">
            <mxPoint x="470" y="284" as="sourcePoint" />
            <mxPoint x="525" y="284" as="targetPoint" />
          </mxGeometry>
        </mxCell>
        <mxCell id="bZIRyT0qTB4COSatI6py-29" value="" style="endArrow=none;html=1;rounded=0;" edge="1" parent="1">
          <mxGeometry width="50" height="50" relative="1" as="geometry">
            <mxPoint x="485" y="317" as="sourcePoint" />
            <mxPoint x="540" y="317" as="targetPoint" />
          </mxGeometry>
        </mxCell>
        <mxCell id="bZIRyT0qTB4COSatI6py-30" value="" style="endArrow=none;html=1;rounded=0;" edge="1" parent="1">
          <mxGeometry width="50" height="50" relative="1" as="geometry">
            <mxPoint x="500" y="350" as="sourcePoint" />
            <mxPoint x="555" y="350" as="targetPoint" />
          </mxGeometry>
        </mxCell>
        <mxCell id="bZIRyT0qTB4COSatI6py-31" value="&lt;span style=&quot;font-family: Calibri, sans-serif;&quot;&gt;&lt;font style=&quot;font-size: 15px;&quot;&gt;0&amp;nbsp; 0&amp;nbsp; 1&amp;nbsp; 1&lt;/font&gt;&lt;/span&gt;" style="text;html=1;align=left;verticalAlign=middle;resizable=0;points=[];autosize=1;strokeColor=none;fillColor=none;" vertex="1" parent="1">
          <mxGeometry x="513" y="345" width="70" height="30" as="geometry" />
        </mxCell>
        <mxCell id="bZIRyT0qTB4COSatI6py-32" value="&lt;span style=&quot;font-family: Calibri, sans-serif; font-size: 15px;&quot;&gt;0&amp;nbsp; 0&amp;nbsp; 0&amp;nbsp; 0&lt;/span&gt;" style="text;html=1;align=left;verticalAlign=middle;resizable=0;points=[];autosize=1;strokeColor=none;fillColor=none;" vertex="1" parent="1">
          <mxGeometry x="513" y="358" width="70" height="30" as="geometry" />
        </mxCell>
        <mxCell id="bZIRyT0qTB4COSatI6py-33" value="" style="endArrow=none;html=1;rounded=0;" edge="1" parent="1">
          <mxGeometry width="50" height="50" relative="1" as="geometry">
            <mxPoint x="514" y="382.5" as="sourcePoint" />
            <mxPoint x="569" y="382.5" as="targetPoint" />
          </mxGeometry>
        </mxCell>
        <mxCell id="bZIRyT0qTB4COSatI6py-34" value="&lt;span style=&quot;font-family: Calibri, sans-serif;&quot;&gt;&lt;font style=&quot;font-size: 15px;&quot;&gt;0&amp;nbsp; 1&amp;nbsp; 1&amp;nbsp; 1&lt;/font&gt;&lt;/span&gt;" style="text;html=1;align=left;verticalAlign=middle;resizable=0;points=[];autosize=1;strokeColor=none;fillColor=none;" vertex="1" parent="1">
          <mxGeometry x="527" y="377" width="70" height="30" as="geometry" />
        </mxCell>
        <mxCell id="bZIRyT0qTB4COSatI6py-35" value="&lt;span style=&quot;font-family: Calibri, sans-serif; font-size: 15px;&quot;&gt;0&amp;nbsp; 0&amp;nbsp; 0&amp;nbsp; 0&lt;/span&gt;" style="text;html=1;align=left;verticalAlign=middle;resizable=0;points=[];autosize=1;strokeColor=none;fillColor=none;" vertex="1" parent="1">
          <mxGeometry x="527" y="390" width="70" height="30" as="geometry" />
        </mxCell>
        <mxCell id="bZIRyT0qTB4COSatI6py-36" value="" style="endArrow=none;html=1;rounded=0;" edge="1" parent="1">
          <mxGeometry width="50" height="50" relative="1" as="geometry">
            <mxPoint x="528" y="415" as="sourcePoint" />
            <mxPoint x="583" y="415" as="targetPoint" />
          </mxGeometry>
        </mxCell>
        <mxCell id="bZIRyT0qTB4COSatI6py-37" value="&lt;span style=&quot;font-family: Calibri, sans-serif;&quot;&gt;&lt;font style=&quot;font-size: 15px;&quot;&gt;1&amp;nbsp; 1&amp;nbsp; 1&amp;nbsp; 1&lt;/font&gt;&lt;/span&gt;" style="text;html=1;align=left;verticalAlign=middle;resizable=0;points=[];autosize=1;strokeColor=none;fillColor=none;" vertex="1" parent="1">
          <mxGeometry x="541" y="409" width="70" height="30" as="geometry" />
        </mxCell>
        <mxCell id="bZIRyT0qTB4COSatI6py-38" value="&lt;span style=&quot;font-family: Calibri, sans-serif;&quot;&gt;&lt;font style=&quot;font-size: 15px;&quot;&gt;1&amp;nbsp; 0&amp;nbsp; 1&amp;nbsp; 1&lt;/font&gt;&lt;/span&gt;" style="text;html=1;align=left;verticalAlign=middle;resizable=0;points=[];autosize=1;strokeColor=none;fillColor=none;" vertex="1" parent="1">
          <mxGeometry x="541" y="422" width="70" height="30" as="geometry" />
        </mxCell>
        <mxCell id="bZIRyT0qTB4COSatI6py-39" value="" style="endArrow=none;html=1;rounded=0;" edge="1" parent="1">
          <mxGeometry width="50" height="50" relative="1" as="geometry">
            <mxPoint x="541.5" y="446" as="sourcePoint" />
            <mxPoint x="596.5" y="446" as="targetPoint" />
          </mxGeometry>
        </mxCell>
        <mxCell id="bZIRyT0qTB4COSatI6py-40" value="&lt;span style=&quot;font-family: Calibri, sans-serif;&quot;&gt;&lt;font style=&quot;font-size: 15px;&quot;&gt;1&amp;nbsp; 0&amp;nbsp; 0&amp;nbsp; 1&lt;/font&gt;&lt;/span&gt;" style="text;html=1;align=left;verticalAlign=middle;resizable=0;points=[];autosize=1;strokeColor=none;fillColor=none;" vertex="1" parent="1">
          <mxGeometry x="555" y="439" width="70" height="30" as="geometry" />
        </mxCell>
        <mxCell id="bZIRyT0qTB4COSatI6py-41" value="&lt;span style=&quot;font-family: Calibri, sans-serif; font-size: 15px;&quot;&gt;1&amp;nbsp; 0&amp;nbsp; 1&amp;nbsp; 1&lt;/span&gt;" style="text;html=1;align=left;verticalAlign=middle;resizable=0;points=[];autosize=1;strokeColor=none;fillColor=none;" vertex="1" parent="1">
          <mxGeometry x="555" y="452" width="70" height="30" as="geometry" />
        </mxCell>
        <mxCell id="bZIRyT0qTB4COSatI6py-42" value="" style="endArrow=none;html=1;rounded=0;" edge="1" parent="1">
          <mxGeometry width="50" height="50" relative="1" as="geometry">
            <mxPoint x="555" y="476" as="sourcePoint" />
            <mxPoint x="610" y="476" as="targetPoint" />
          </mxGeometry>
        </mxCell>
        <mxCell id="bZIRyT0qTB4COSatI6py-43" value="&lt;span style=&quot;font-family: Calibri, sans-serif;&quot;&gt;&lt;font style=&quot;font-size: 15px;&quot;&gt;1&amp;nbsp; 0&lt;/font&gt;&lt;/span&gt;" style="text;html=1;align=left;verticalAlign=middle;resizable=0;points=[];autosize=1;strokeColor=none;fillColor=none;" vertex="1" parent="1">
          <mxGeometry x="584" y="469" width="50" height="30" as="geometry" />
        </mxCell>
        <mxCell id="bZIRyT0qTB4COSatI6py-45" value="" style="endArrow=classic;html=1;rounded=0;" edge="1" parent="1">
          <mxGeometry width="50" height="50" relative="1" as="geometry">
            <mxPoint x="519" y="235" as="sourcePoint" />
            <mxPoint x="519" y="253" as="targetPoint" />
          </mxGeometry>
        </mxCell>
        <mxCell id="bZIRyT0qTB4COSatI6py-46" value="" style="endArrow=classic;html=1;rounded=0;" edge="1" parent="1">
          <mxGeometry width="50" height="50" relative="1" as="geometry">
            <mxPoint x="533" y="235" as="sourcePoint" />
            <mxPoint x="533" y="287" as="targetPoint" />
          </mxGeometry>
        </mxCell>
        <mxCell id="bZIRyT0qTB4COSatI6py-47" value="" style="endArrow=classic;html=1;rounded=0;" edge="1" parent="1">
          <mxGeometry width="50" height="50" relative="1" as="geometry">
            <mxPoint x="547" y="235" as="sourcePoint" />
            <mxPoint x="547" y="318" as="targetPoint" />
          </mxGeometry>
        </mxCell>
        <mxCell id="bZIRyT0qTB4COSatI6py-48" value="" style="endArrow=classic;html=1;rounded=0;" edge="1" parent="1">
          <mxGeometry width="50" height="50" relative="1" as="geometry">
            <mxPoint x="561" y="235" as="sourcePoint" />
            <mxPoint x="561" y="352" as="targetPoint" />
          </mxGeometry>
        </mxCell>
        <mxCell id="bZIRyT0qTB4COSatI6py-49" value="" style="endArrow=classic;html=1;rounded=0;" edge="1" parent="1">
          <mxGeometry width="50" height="50" relative="1" as="geometry">
            <mxPoint x="576" y="235" as="sourcePoint" />
            <mxPoint x="576" y="385" as="targetPoint" />
          </mxGeometry>
        </mxCell>
        <mxCell id="bZIRyT0qTB4COSatI6py-50" value="" style="endArrow=classic;html=1;rounded=0;" edge="1" parent="1">
          <mxGeometry width="50" height="50" relative="1" as="geometry">
            <mxPoint x="590" y="234" as="sourcePoint" />
            <mxPoint x="590" y="417" as="targetPoint" />
          </mxGeometry>
        </mxCell>
        <mxCell id="bZIRyT0qTB4COSatI6py-51" value="" style="endArrow=classic;html=1;rounded=0;" edge="1" parent="1">
          <mxGeometry width="50" height="50" relative="1" as="geometry">
            <mxPoint x="604" y="235" as="sourcePoint" />
            <mxPoint x="604" y="445" as="targetPoint" />
          </mxGeometry>
        </mxCell>
      </root>
    </mxGraphModel>
  </diagram>
</mxfile>
